<?xml version="1.0" encoding="iso-8859-1"?>
<!-- Uploaded to: SVG Repo, www.svgrepo.com, Generator: SVG Repo Mixer Tools -->
<svg fill="currentColor"  version="1.1" id="Capa_1" xmlns="http://www.w3.org/2000/svg" xmlns:xlink="http://www.w3.org/1999/xlink"
	 viewBox="0 0 64 64" xml:space="preserve">
<g>
	<path d="M48,25h-6c-0.553,0-1,0.447-1,1v12c0,0.553,0.447,1,1,1h6c0.553,0,1-0.447,1-1V26C49,25.447,48.553,25,48,25z M47,27v2h-4
		v-2H47z M47,31v2h-4v-2H47z M43,37v-2h4v2H43z"/>
	<path d="M60,54h-2c0,1.36-0.915,2.498-2.157,2.865L53,18.964v-3.567C53.962,15.789,54.966,16,56,16c4.411,0,8-3.589,8-8
		s-3.589-8-8-8c-1.188,0-2.341,0.263-3.43,0.779C52.222,0.945,52,1.297,52,1.683s0.222,0.737,0.57,0.903C54.654,3.576,56,5.702,56,8
		c0,2.206-1.249,4.242-3.191,5.279C52.018,9.693,48.82,7,45,7c-3.307,0-6.152,2.017-7.369,4.886L8.228,4.974L7.771,6.921
		l29.326,6.894C37.04,14.203,37,14.596,37,15v1.208L7.771,23.079l0.457,1.947L37,18.263v0.701L34.221,56.01
		C33.653,56.638,32.847,57,32,57c-1.654,0-3-1.346-3-3h-2c0,1.654-1.346,3-3,3s-3-1.346-3-3h-2c0,1.654-1.346,3-3,3s-3-1.346-3-3h-2
		c0,1.654-1.346,3-3,3s-3-1.346-3-3H3c0,1.654-1.346,3-3,3v2c1.641,0,3.088-0.806,4-2.031C4.912,58.194,6.359,59,8,59
		s3.088-0.806,4-2.031C12.912,58.194,14.359,59,16,59s3.088-0.806,4-2.031C20.912,58.194,22.359,59,24,59s3.088-0.806,4-2.031
		c0.831,1.117,2.112,1.862,3.576,1.988C28.237,60.134,26,61.828,26,64h2c0-2.088,6.468-5,17-5s17,2.912,17,5h2
		c0-2.451-2.848-4.293-6.914-5.471c0.763-0.353,1.417-0.892,1.914-1.56C59.912,58.194,61.359,59,63,59h1v-2h-1
		C61.346,57,60,55.654,60,54z M58,8c0-2.297-1.007-4.463-2.68-5.961C55.545,2.013,55.771,2,56,2c3.309,0,6,2.691,6,6s-2.691,6-6,6
		c-0.229,0-0.455-0.013-0.68-0.039C56.993,12.463,58,10.297,58,8z M45,48c-2.757,0-5,2.243-5,5v4.241
		c-1.342,0.13-2.654,0.312-3.906,0.545L38.928,20h12.145l2.834,37.785c-1.252-0.233-2.564-0.415-3.906-0.545V53
		C50,50.243,47.757,48,45,48z M39,15c0-3.309,2.691-6,6-6s6,2.691,6,6v3H39V15z M42,57.088V53c0-1.654,1.346-3,3-3s3,1.346,3,3
		v4.088C47.002,57.03,45.998,57,45,57S42.998,57.03,42,57.088z"/>
	<path d="M17,31.586l-2.293-2.293l-1.414,1.414l3,3C16.488,33.902,16.744,34,17,34s0.512-0.098,0.707-0.293l3-3l-1.414-1.414
		L17,31.586z"/>
	<path d="M23,37.586l-2.293-2.293l-1.414,1.414l3,3C22.488,39.902,22.744,40,23,40s0.512-0.098,0.707-0.293l3-3l-1.414-1.414
		L23,37.586z"/>
	<path d="M29,34c0.256,0,0.512-0.098,0.707-0.293l3-3l-1.414-1.414L29,31.586l-2.293-2.293l-1.414,1.414l3,3
		C28.488,33.902,28.744,34,29,34z"/>
	<rect x="8" y="38" width="2" height="2"/>
	<rect y="38" width="2" height="2"/>
	<rect x="4" y="38" width="2" height="2"/>
	<rect x="12" y="42" width="2" height="2"/>
	<rect x="4" y="42" width="2" height="2"/>
	<rect x="8" y="42" width="2" height="2"/>
</g>
</svg>
