<?xml version="1.0" encoding="utf-8"?>
<!-- Uploaded to: SVG Repo, www.svgrepo.com, Generator: SVG Repo Mixer Tools -->
<svg width="800px" height="800px" viewBox="0 0 1024 1024" class="icon" version="1.1" xmlns="http://www.w3.org/2000/svg">
    <path d="M613.12 350.72c0 15.36-11.52 28.16-25.6 28.16h-153.6c-14.08 0-25.6-12.8-25.6-28.16v-84.48c0-15.36 11.52-28.16 25.6-28.16h153.6c14.08 0 25.6 12.8 25.6 28.16v84.48z"
          fill="#6FB0BE"/>
    <path d="M587.52 391.68h-153.6c-21.76 0-38.4-17.92-38.4-40.96v-84.48c0-23.04 16.64-40.96 38.4-40.96h153.6c21.76 0 38.4 17.92 38.4 40.96v84.48c0 23.04-16.64 40.96-38.4 40.96z m-153.6-140.8c-7.68 0-12.8 6.4-12.8 15.36v84.48c0 8.96 5.12 15.36 12.8 15.36h153.6c7.68 0 12.8-6.4 12.8-15.36v-84.48c0-8.96-5.12-15.36-12.8-15.36h-153.6z"
          fill="#231C1C"/>
    <path d="M638.72 225.28c0 14.08-11.52 25.6-25.6 25.6h-204.8c-14.08 0-25.6-11.52-25.6-25.6v-38.4c0-14.08 11.52-12.8 25.6-12.8l102.4-89.6 102.4 89.6c14.08 0 25.6-1.28 25.6 12.8v38.4z"
          fill="#E96A60"/>
    <path d="M613.12 263.68h-204.8c-21.76 0-38.4-16.64-38.4-38.4v-38.4c0-7.68 2.56-14.08 6.4-17.92 7.68-7.68 16.64-7.68 26.88-7.68l98.56-87.04c5.12-3.84 11.52-3.84 16.64 0l98.56 87.04c10.24 0 19.2 0 26.88 7.68 5.12 3.84 6.4 10.24 6.4 17.92v38.4c1.28 21.76-15.36 38.4-37.12 38.4z m-217.6-76.8v38.4c0 7.68 5.12 12.8 12.8 12.8h204.8c7.68 0 12.8-5.12 12.8-12.8v-38.4h-12.8c-2.56 0-6.4-1.28-8.96-2.56L510.72 102.4l-93.44 81.92c-2.56 2.56-5.12 2.56-8.96 2.56h-12.8z"
          fill="#231C1C"/>
    <path d="M433.92 212.48h25.6v38.4h-25.6zM561.92 212.48h25.6v38.4h-25.6zM497.92 212.48h25.6v38.4h-25.6zM369.92 366.08h281.6v25.6h-281.6zM369.92 327.68h25.6v38.4h-25.6zM625.92 327.68h25.6v38.4h-25.6zM536.32 263.68h25.6v102.4h-25.6zM459.52 263.68h25.6v102.4h-25.6z"
          fill="#231C1C"/>
    <path d="M609.28 387.84c0-11.52-8.96-21.76-19.2-21.76H432.64c-10.24 0-19.2 10.24-19.2 21.76L404.48 524.8l208.64-90.88-3.84-46.08z"
          fill="#FDE8C2"/>
    <path d="M390.4 545.28l10.24-157.44c0-17.92 14.08-33.28 32-33.28h157.44c17.92 0 32 15.36 32 34.56l3.84 53.76-235.52 102.4z m42.24-166.4c-3.84 0-6.4 3.84-6.4 8.96l-7.68 116.48 180.48-79.36-2.56-37.12c0-5.12-2.56-8.96-6.4-8.96H432.64z"
          fill="#231C1C"/>
    <path d="M382.72 856.32c0 11.52 8.96 21.76 19.2 21.76h216.32c10.24 0 19.2-10.24 19.2-21.76l-12.8-195.84-238.08 103.68-3.84 92.16z"
          fill="#FDE8C2"/>
    <path d="M619.52 890.88H403.2c-17.92 0-32-15.36-32-34.56v-1.28l6.4-98.56 262.4-115.2 14.08 213.76c-2.56 20.48-16.64 35.84-34.56 35.84z m-224-34.56c0 5.12 3.84 8.96 6.4 8.96h216.32c3.84 0 6.4-3.84 6.4-8.96l-11.52-176.64-213.76 93.44-3.84 83.2z"
          fill="#231C1C"/>
    <path d="M615.68 487.68l-215.04 94.72-7.68 125.44 230.4-101.12z" fill="#FDE8C2"/>
    <path d="M378.88 728.32l10.24-154.88L627.2 468.48l8.96 145.92-257.28 113.92z m33.28-136.96l-6.4 97.28 203.52-89.6-6.4-92.16-190.72 84.48z"
          fill="#231C1C"/>
    <path d="M611.84 433.92L404.48 524.8l-3.84 57.6 215.04-94.72z" fill="#E96A60"/>
    <path d="M400.64 595.2c-2.56 0-5.12-1.28-7.68-2.56-3.84-2.56-5.12-6.4-5.12-11.52l3.84-57.6c0-5.12 3.84-8.96 7.68-11.52l208.64-90.88c3.84-1.28 7.68-1.28 11.52 1.28 3.84 2.56 6.4 6.4 6.4 10.24l3.84 53.76c0 5.12-2.56 10.24-7.68 12.8l-215.04 94.72c-3.84 1.28-5.12 1.28-6.4 1.28z m15.36-61.44l-1.28 28.16 188.16-81.92-1.28-26.88-185.6 80.64z"
          fill="#231C1C"/>
    <path d="M392.96 707.84l-3.84 57.6L627.2 660.48l-3.84-53.76z" fill="#E96A60"/>
    <path d="M389.12 778.24c-2.56 0-5.12-1.28-7.68-2.56-3.84-2.56-5.12-6.4-5.12-11.52l3.84-57.6c0-5.12 3.84-8.96 7.68-11.52l230.4-101.12c3.84-1.28 7.68-1.28 11.52 1.28 3.84 2.56 6.4 6.4 6.4 10.24l3.84 53.76c0 5.12-2.56 10.24-7.68 12.8l-238.08 103.68c-2.56 2.56-3.84 2.56-5.12 2.56z m15.36-61.44l-1.28 28.16L613.12 652.8l-1.28-26.88L404.48 716.8z"
          fill="#231C1C"/>
    <path d="M549.12 878.08h-76.8v-76.8c0-14.08 11.52-25.6 25.6-25.6h25.6c14.08 0 25.6 11.52 25.6 25.6v76.8z"
          fill="#FAC546"/>
    <path d="M549.12 890.88h-76.8c-7.68 0-12.8-5.12-12.8-12.8v-76.8c0-21.76 16.64-38.4 38.4-38.4h25.6c21.76 0 38.4 16.64 38.4 38.4v76.8c0 7.68-5.12 12.8-12.8 12.8z m-64-25.6h51.2v-64c0-7.68-5.12-12.8-12.8-12.8h-25.6c-7.68 0-12.8 5.12-12.8 12.8v64z"
          fill="#231C1C"/>
</svg>
