<?xml version="1.0" encoding="iso-8859-1"?>
<!-- Uploaded to: SVG Repo, www.svgrepo.com, Generator: SVG Repo Mixer Tools -->
<!DOCTYPE svg PUBLIC "-//W3C//DTD SVG 1.1//EN" "http://www.w3.org/Graphics/SVG/1.1/DTD/svg11.dtd">
<svg fill="#000000" height="800px" width="800px" version="1.1" id="Capa_1" xmlns="http://www.w3.org/2000/svg" xmlns:xlink="http://www.w3.org/1999/xlink" 
	 viewBox="0 0 372 372" xml:space="preserve">
<g>
	<path d="M186,0C83.439,0,0,83.439,0,186c0,49.408,19.716,96.13,55.515,131.559C90.989,352.666,137.33,372,186,372
		c102.561,0,186-83.439,186-186S288.561,0,186,0z M186,20c91.533,0,166,74.467,166,166c0,14.512-1.878,28.592-5.393,42.017
		c-0.809-0.211-1.654-0.335-2.53-0.335H333v-42.973c0-5.523-4.477-10-10-10h-53.739v-42.984c4.416-1.038,7.707-4.993,7.707-9.725
		s-3.291-8.688-7.707-9.725v-5.602c0-16.356-13.307-29.663-29.663-29.663s-29.664,13.307-29.664,29.663v5.602
		c-4.415,1.038-7.706,4.993-7.706,9.725s3.291,8.687,7.706,9.725v42.984h-10.268c-5.523,0-10,4.477-10,10v42.973h-6.33
		c-4.12,0-7.819,2.527-9.316,6.366l-6.046,15.5H33.138C24.699,229.862,20,208.363,20,186C20,94.467,94.467,20,186,20z M249.261,112
		h-19.327v-5.328c0-5.328,4.335-9.663,9.664-9.663c5.328,0,9.663,4.335,9.663,9.663V112z M249.261,132v42.709h-19.327V132H249.261z
		 M313,194.709v32.973H209.667v-32.973H313z M63.326,296.5H89.5c5.523,0,10-4.477,10-10s-4.477-10-10-10H47.756
		c-1.519-2.281-2.984-4.599-4.392-6.953h116.808l-28.457,72.95C105.394,333.052,81.897,317.024,63.326,296.5z M224.209,347.554
		l21.862-56.045l1.721-4.413c2.007-5.146-0.537-10.943-5.682-12.951c-5.146-2.006-10.943,0.537-12.951,5.682l-10.41,26.687
		l-17.466,44.775C196.249,351.751,191.153,352,186,352c-11.964,0-23.678-1.356-35.002-3.898l2.172-5.569l37-94.851H325.87h14.239
		C320.2,297.247,277.046,335.06,224.209,347.554z"/>
	<path d="M225.667,221.448H231c5.523,0,10-4.477,10-10s-4.477-10-10-10h-5.333c-5.523,0-10,4.477-10,10
		S220.144,221.448,225.667,221.448z"/>
	<path d="M256.594,221.448h5.333c5.523,0,10-4.477,10-10s-4.477-10-10-10h-5.333c-5.523,0-10,4.477-10,10
		S251.071,221.448,256.594,221.448z"/>
	<path d="M287.521,221.448h5.333c5.523,0,10-4.477,10-10s-4.477-10-10-10h-5.333c-5.523,0-10,4.477-10,10
		S281.999,221.448,287.521,221.448z"/>
</g>
</svg>